# xmcd
#
# Track frame offsets:
#	150
#	13576
#	30096
#	46618
#	59230
#	77617
#	93918
#	107799
#	124914
#	140454
#	163108
#	179628
#	195556
#	208092
#	226626
#
# Disc length: 3399 seconds
#
# Revision: 0
# Processed by: cddbd v1.5.2PL0 Copyright (c) Steve Scherf et al.
# Submitted via: dBpowerAMP V4.0
#
DISCID=c10d450f
DTITLE=Pedro e Thiago - Pedro e Thiago Ao Vivo
DYEAR=2008
DGENRE=Sertanejo
TTITLE0=Ninguém Merece
TTITLE1=Jogo do Amor
TTITLE2=É Melhor Assim
TTITLE3=Entre Um Gole e Outro
TTITLE4=Quatro Semanas de Amor
TTITLE5=Insensatez
TTITLE6=Pega Ninguém
TTITLE7=O Que é Que Há
TTITLE8=Pra Onde Você For
TTITLE9=Laço Aberto
TTITLE10=Mulher de Fases
TTITLE11=No Batidão da Vida
TTITLE12=Sapatiô, Sapatiô
TTITLE13=Toque de Mágica
TTITLE14=É Por Você Que Canto/Aqueles Olhos/Amores São Coisas da Vida
EXTD=
EXTT0=
EXTT1=
EXTT2=
EXTT3=
EXTT4=
EXTT5=
EXTT6=
EXTT7=
EXTT8=
EXTT9=
EXTT10=
EXTT11=
EXTT12=
EXTT13=
EXTT14=
PLAYORDER=
